mtllib test.mtl
# vertices
v 0 -8 -0
v 0 -8 160
v 0 8 160
v 0 8 -0
v 128 8 160
v 128 -8 160
v 128 -8 -0
v 128 8 -0
v 0 8 -0
v 0 8 16
v 0 56 16
v 0 56 -0
v 72 56 16
v 72 8 16
v 72 8 -0
v 72 56 -0
v 18.285714285716494 8 16
v 18.285714285716494 8 48
v 18.285714285716494 24 48
v 18.285714285716494 24 16
v 36.57142857143117 24 48
v 36.57142857142857 8 48
v 36.57142857142857 8 16
v 36.57142857143117 24 16
v 0 8 16
v 0 8 64
v 0 56 64
v 0 56 16
v 18.285714285713766 56 64
v 18.285714285714285 8 64
v 18.285714285714285 8 16
v 18.285714285713766 56 16
v 36.57142857142753 8 16
v 36.57142857142753 8 64
v 36.57142857142753 24 64
v 36.57142857142753 24 16
v 72 24 64
v 72 8 64
v 72 8 16
v 72 24 16
v 36.57142857142753 24 16
v 36.57142857142753 24 48
v 36.57142857142753 32 48
v 36.57142857142753 32 16
v 72 32 48
v 72 24 48
v 72 24 16
v 72 32 16
v 18.285714285716494 8 48
v 18.285714285716494 8 52
v 18.285714285716494 24 52
v 18.285714285716494 24 48
v 36.57142857143117 24 52
v 36.57142857142857 8 52
v 36.57142857142857 8 48
v 36.57142857143117 24 48
v 18.285714285716494 8 52
v 18.285714285716494 8 56
v 18.285714285716494 20 56
v 18.285714285716494 20 52
v 36.57142857143117 20 56
v 36.57142857142857 8 56
v 36.57142857142857 8 52
v 36.57142857143117 20 52
v 18.285714285716494 8 56
v 18.285714285716494 8 60
v 18.285714285716494 16 60
v 18.285714285716494 16 56
v 36.57142857143117 16 60
v 36.57142857142857 8 60
v 36.57142857142857 8 56
v 36.57142857143117 16 56
v 18.285714285716494 8 60
v 18.285714285716494 8 64
v 18.285714285716494 12 64
v 18.285714285716494 12 60
v 36.57142857143117 12 64
v 36.57142857142857 8 64
v 36.57142857142857 8 60
v 36.57142857143117 12 60
v 18.285714285716494 24 32
v 18.285714285716494 24 36
v 18.285714285716494 40 36
v 18.285714285716494 40 32
v 36.57142857143117 40 36
v 36.57142857142857 24 36
v 36.57142857142857 24 32
v 36.57142857143117 40 32
v 18.285714285716494 24 36
v 18.285714285716494 24 40
v 18.285714285716494 36 40
v 18.285714285716494 36 36
v 36.57142857143117 36 40
v 36.57142857142857 24 40
v 36.57142857142857 24 36
v 36.57142857143117 36 36
v 18.285714285716494 24 40
v 18.285714285716494 24 44
v 18.285714285716494 32 44
v 18.285714285716494 32 40
v 36.57142857143117 32 44
v 36.57142857142857 24 44
v 36.57142857142857 24 40
v 36.57142857143117 32 40
v 18.285714285716494 24 44
v 18.285714285716494 24 48
v 18.285714285716494 28 48
v 18.285714285716494 28 44
v 36.57142857143117 28 48
v 36.57142857142857 24 48
v 36.57142857142857 24 44
v 36.57142857143117 28 44
v 18.285714285716494 40 16
v 18.285714285716494 40 20
v 18.285714285716494 56 20
v 18.285714285716494 56 16
v 36.57142857143117 56 20
v 36.57142857142857 40 20
v 36.57142857142857 40 16
v 36.57142857143117 56 16
v 18.285714285716494 40 20
v 18.285714285716494 40 24
v 18.285714285716494 52 24
v 18.285714285716494 52 20
v 36.57142857143117 52 24
v 36.57142857142857 40 24
v 36.57142857142857 40 20
v 36.57142857143117 52 20
v 18.285714285716494 40 24
v 18.285714285716494 40 28
v 18.285714285716494 48 28
v 18.285714285716494 48 24
v 36.57142857143117 48 28
v 36.57142857142857 40 28
v 36.57142857142857 40 24
v 36.57142857143117 48 24
v 18.285714285716494 40 28
v 18.285714285716494 40 32
v 18.285714285716494 44 32
v 18.285714285716494 44 28
v 36.57142857143117 44 32
v 36.57142857142857 40 32
v 36.57142857142857 40 28
v 36.57142857143117 44 28
v 18.285714285716494 24 16
v 18.285714285716494 24 32
v 18.285714285716494 40 32
v 18.285714285716494 40 16
v 36.57142857143117 40 32
v 36.57142857142857 24 32
v 36.57142857142857 24 16
v 36.57142857143117 40 16
v 88 8 48
v 88 8 96
v 88 32 96
v 88 32 48
v 90 32 96
v 90 8 96
v 90 8 48
v 90 32 48
v 72 8 48
v 72 8 96
v 72 32 96
v 72 32 48
v 74 32 96
v 74 8 96
v 74 8 48
v 74 32 48
v 102 8 48
v 102 8 96
v 102 24 96
v 102 24 48
v 104 24 96
v 104 8 96
v 104 8 48
v 104 24 48
v 90 20 48
v 90 20 96
v 90 24 96
v 90 24 48
v 102 24 96
v 102 20 96
v 102 20 48
v 102 24 48
v 74 40 48
v 74 40 64
v 74 44 64
v 74 44 48
v 88 44 64
v 88 40 64
v 88 40 48
v 88 44 48
v 88 32 48
v 88 32 64
v 88 44 64
v 88 44 48
v 90 44 64
v 90 32 64
v 90 32 48
v 90 44 48
v 72 32 48
v 72 32 64
v 72 44 64
v 72 44 48
v 74 44 64
v 74 32 64
v 74 32 48
v 74 44 48
v 74 28 64
v 74 28 96
v 74 32 96
v 74 32 64
v 88 32 96
v 88 28 96
v 88 28 64
v 88 32 64
v 72 32 64
v 72 32 66
v 72 44 66
v 72 44 64
v 90 44 66
v 90 32 66
v 90 32 64
v 90 44 64
v 90 36 48
v 90 36 96
v 90 40 96
v 90 40 48
v 102 40 96
v 102 36 96
v 102 36 48
v 102 40 48
v 102 24 48
v 102 24 96
v 102 40 96
v 102 40 48
v 104 40 96
v 104 24 96
v 104 24 48
v 104 40 48
v 88 32 66
v 88 32 96
v 88 40 96
v 88 40 66
v 90 40 96
v 90 32 96
v 90 32 66
v 90 40 66

# texture coordinates
vt 0 -0.5
vt 10 -0.5
vt 10 0.5
vt 0 0.5
vt 8 0.5
vt 8 -0.5
vt -8 -10
vt 0 -10
vt 0 -0
vt -8 -0
vt 8 -0
vt 8 -10
vt -8 -0.5
vt -8 0.5
vt -10 0.5
vt -10 -0.5
vt 1 0.5
vt 1 3.5
vt 0 3.5
vt 4.5 3.5
vt 4.5 0.5
vt -4.5 -1
vt 0 -1
vt -4.5 -0
vt 4.5 -0
vt 4.5 -1
vt -4.5 0.5
vt -4.5 3.5
vt -1 3.5
vt -1 0.5
vt 3 0.5
vt 3 1.5
vt 1 1.5
vt 2.2857144 1.5
vt 1.1428572 1.5
vt 1.1428572 0.5
vt 2.2857144 0.5
vt -2.2857144 -3
vt -1.1428572 -3
vt -1.1428572 -1
vt -2.2857144 -1
vt 2.2857144 -1
vt 1.1428572 -1
vt 1.1428572 -3
vt 2.2857144 -3
vt -2.2857144 0.5
vt -1.1428572 0.5
vt -1.1428572 1.5
vt -2.2857144 1.5
vt -1 1.5
vt -3 1.5
vt -3 0.5
vt 4 0.5
vt 4 3.5
vt 1.1428572 3.5
vt -1.1428572 -4
vt 0 -4
vt 1.1428572 -4
vt -1.1428572 3.5
vt -4 3.5
vt -4 0.5
vt 4 1.5
vt 4.5 1.5
vt -4.5 -4
vt -2.2857144 -4
vt 2.2857144 -4
vt 4.5 -4
vt -4.5 1.5
vt -4 1.5
vt 3 2
vt 1 2
vt 4.5 2
vt 2.2857144 2
vt -4.5 -3
vt 4.5 -3
vt -2.2857144 2
vt -4.5 2
vt -1 2
vt -3 2
vt 3.25 0.5
vt 3.25 1.5
vt -2.2857144 -3.25
vt -1.1428572 -3.25
vt 1.1428572 -3.25
vt 2.2857144 -3.25
vt -3.25 1.5
vt -3.25 0.5
vt 3.5 0.5
vt 3.5 1.25
vt 3.25 1.25
vt 2.2857144 1.25
vt 1.1428572 1.25
vt -2.2857144 -3.5
vt -1.1428572 -3.5
vt 1.1428572 -3.5
vt 2.2857144 -3.5
vt -1.1428572 1.25
vt -2.2857144 1.25
vt -3.25 1.25
vt -3.5 1.25
vt -3.5 0.5
vt 3.75 0.5
vt 3.75 1
vt 3.5 1
vt 2.2857144 1
vt 1.1428572 1
vt -2.2857144 -3.75
vt -1.1428572 -3.75
vt 1.1428572 -3.75
vt 2.2857144 -3.75
vt -1.1428572 1
vt -2.2857144 1
vt -3.5 1
vt -3.75 1
vt -3.75 0.5
vt 4 0.75
vt 3.75 0.75
vt 2.2857144 0.75
vt 1.1428572 0.75
vt -1.1428572 0.75
vt -2.2857144 0.75
vt -3.75 0.75
vt -4 0.75
vt 2 1.5
vt 2.25 1.5
vt 2.25 2.5
vt 2 2.5
vt 2.2857144 2.5
vt 1.1428572 2.5
vt -2.2857144 -2.25
vt -1.1428572 -2.25
vt -1.1428572 -2
vt -2.2857144 -2
vt 2.2857144 -2
vt 1.1428572 -2
vt 1.1428572 -2.25
vt 2.2857144 -2.25
vt -1.1428572 2.5
vt -2.2857144 2.5
vt -2 2.5
vt -2.25 2.5
vt -2.25 1.5
vt -2 1.5
vt 2.5 1.5
vt 2.5 2.25
vt 2.25 2.25
vt 2.2857144 2.25
vt 1.1428572 2.25
vt -2.2857144 -2.5
vt -1.1428572 -2.5
vt 1.1428572 -2.5
vt 2.2857144 -2.5
vt -1.1428572 2.25
vt -2.2857144 2.25
vt -2.25 2.25
vt -2.5 2.25
vt -2.5 1.5
vt 2.75 1.5
vt 2.75 2
vt 2.5 2
vt 1.1428572 2
vt -2.2857144 -2.75
vt -1.1428572 -2.75
vt 1.1428572 -2.75
vt 2.2857144 -2.75
vt -1.1428572 2
vt -2.5 2
vt -2.75 2
vt -2.75 1.5
vt 3 1.75
vt 2.75 1.75
vt 2.2857144 1.75
vt 1.1428572 1.75
vt -1.1428572 1.75
vt -2.2857144 1.75
vt -2.75 1.75
vt -3 1.75
vt 1 2.5
vt 1.25 2.5
vt 1.25 3.5
vt 2.2857144 3.5
vt -2.2857144 -1.25
vt -1.1428572 -1.25
vt 1.1428572 -1.25
vt 2.2857144 -1.25
vt -2.2857144 3.5
vt -1.25 3.5
vt -1.25 2.5
vt -1 2.5
vt 1.5 2.5
vt 1.5 3.25
vt 1.25 3.25
vt 2.2857144 3.25
vt 1.1428572 3.25
vt -2.2857144 -1.5
vt -1.1428572 -1.5
vt 1.1428572 -1.5
vt 2.2857144 -1.5
vt -1.1428572 3.25
vt -2.2857144 3.25
vt -1.25 3.25
vt -1.5 3.25
vt -1.5 2.5
vt 1.75 2.5
vt 1.75 3
vt 1.5 3
vt 2.2857144 3
vt 1.1428572 3
vt -2.2857144 -1.75
vt -1.1428572 -1.75
vt 1.1428572 -1.75
vt 2.2857144 -1.75
vt -1.1428572 3
vt -2.2857144 3
vt -1.5 3
vt -1.75 3
vt -1.75 2.5
vt 2 2.75
vt 1.75 2.75
vt 2.2857144 2.75
vt 1.1428572 2.75
vt -1.1428572 2.75
vt -2.2857144 2.75
vt -1.75 2.75
vt -2 2.75
vt -6 0.5
vt -6 2
vt 5.625 2
vt 5.5 2
vt 5.5 0.5
vt 5.625 0.5
vt -5.625 -6
vt -5.5 -6
vt -5.5 -3
vt -5.625 -3
vt 5.625 -3
vt 5.5 -3
vt 5.5 -6
vt 5.625 -6
vt -5.625 0.5
vt -5.5 0.5
vt -5.5 2
vt -5.625 2
vt 6 0.5
vt 6 2
vt 4.625 2
vt 4.625 0.5
vt -4.625 -6
vt -4.5 -6
vt -4.625 -3
vt 4.625 -3
vt 4.5 -6
vt 4.625 -6
vt -4.625 0.5
vt -4.625 2
vt -6 1.5
vt 6.5 1.5
vt 6.375 1.5
vt 6.375 0.5
vt 6.5 0.5
vt -6.5 -6
vt -6.375 -6
vt -6.375 -3
vt -6.5 -3
vt 6.5 -3
vt 6.375 -3
vt 6.375 -6
vt 6.5 -6
vt -6.5 0.5
vt -6.375 0.5
vt -6.375 1.5
vt -6.5 1.5
vt 3 1.25
vt 6 1.25
vt 6 1.5
vt 5.625 1.5
vt 5.625 1.25
vt 6.375 1.25
vt -6.375 1.25
vt -5.625 1.25
vt -5.625 1.5
vt -6 1.25
vt -3 1.25
vt 3 2.5
vt 4 2.5
vt 4 2.75
vt 3 2.75
vt 5.5 2.75
vt 4.625 2.75
vt 4.625 2.5
vt 5.5 2.5
vt 5.5 -4
vt 4.625 -4
vt -5.5 2.5
vt -4.625 2.5
vt -4.625 2.75
vt -5.5 2.75
vt -3 2.75
vt -4 2.75
vt -4 2.5
vt -3 2.5
vt -4 2
vt 5.625 2.75
vt -5.625 -4
vt -5.5 -4
vt 5.625 -4
vt -5.625 2.75
vt 4 2
vt 4.5 2.75
vt -4.625 -4
vt -4.5 2.75
vt 4 1.75
vt 6 1.75
vt 4.625 1.75
vt 5.5 1.75
vt -5.5 1.75
vt -4.625 1.75
vt -6 1.75
vt -4 1.75
vt 4.125 2
vt 4.125 2.75
vt 5.625 -4.125
vt 4.5 -4.125
vt -4.125 2.75
vt -4.125 2
vt 3 2.25
vt 6 2.25
vt 6 2.5
vt 6.375 2.5
vt 5.625 2.5
vt 5.625 2.25
vt 6.375 2.25
vt -6.375 2.25
vt -5.625 2.25
vt -5.625 2.5
vt -6.375 2.5
vt -6 2.5
vt -6 2.25
vt -3 2.25
vt 6.5 2.5
vt -6.5 2.5
vt -4.125 2.5
vt -5.5 -4.125
vt -5.625 -4.125
vt 5.5 -4.125

# normals
vn -1 0 -0
vn 0 0 1
vn 0 -1 -0
vn 0 1 -0
vn 0 0 -1
vn 1 0 -0

o entity0_brush0
usemtl prototype_tex_2
f  1/1/1  2/2/1  3/3/1  4/4/1
usemtl prototype_tex_2
f  5/5/2  3/4/2  2/1/2  6/6/2
usemtl prototype_tex_2
f  6/7/3  2/8/3  1/9/3  7/10/3
usemtl prototype_tex_2
f  8/11/4  4/9/4  3/8/4  5/12/4
usemtl prototype_tex_2
f  7/13/5  1/1/5  4/4/5  8/14/5
usemtl prototype_tex_2
f  8/4/6  5/15/6  6/16/6  7/1/6

o entity0_brush1
usemtl prototype_tex_2
f  9/4/1  10/17/1  11/18/1  12/19/1
usemtl prototype_tex_2
f  13/20/2  11/19/2  10/4/2  14/21/2
usemtl prototype_tex_2
f  14/22/3  10/23/3  9/9/3  15/24/3
usemtl prototype_tex_2
f  16/25/4  12/9/4  11/23/4  13/26/4
usemtl prototype_tex_2
f  15/27/5  9/4/5  12/19/5  16/28/5
usemtl prototype_tex_2
f  16/19/6  13/29/6  14/30/6  15/4/6

o entity0_brush2
usemtl prototype_tex_2
f  17/17/1  18/31/1  19/32/1  20/33/1
usemtl prototype_tex_2
f  21/34/2  19/35/2  18/36/2  22/37/2
usemtl prototype_tex_2
f  22/38/3  18/39/3  17/40/3  23/41/3
usemtl prototype_tex_2
f  24/42/4  20/43/4  19/44/4  21/45/4
usemtl prototype_tex_2
f  23/46/5  17/47/5  20/48/5  24/49/5
usemtl prototype_tex_2
f  24/50/6  21/51/6  22/52/6  23/30/6

o entity0_brush3
usemtl prototype_tex_2
f  25/17/1  26/53/1  27/54/1  28/18/1
usemtl prototype_tex_2
f  29/55/2  27/19/2  26/4/2  30/36/2
usemtl prototype_tex_2
f  30/56/3  26/57/3  25/23/3  31/40/3
usemtl prototype_tex_2
f  32/43/4  28/23/4  27/57/4  29/58/4
usemtl prototype_tex_2
f  31/47/5  25/4/5  28/19/5  32/59/5
usemtl prototype_tex_2
f  32/29/6  29/60/6  30/61/6  31/30/6

o entity0_brush4
usemtl prototype_tex_2
f  33/17/1  34/53/1  35/62/1  36/33/1
usemtl prototype_tex_2
f  37/63/2  35/34/2  34/37/2  38/21/2
usemtl prototype_tex_2
f  38/64/3  34/65/3  33/41/3  39/22/3
usemtl prototype_tex_2
f  40/26/4  36/42/4  35/66/4  37/67/4
usemtl prototype_tex_2
f  39/27/5  33/46/5  36/49/5  40/68/5
usemtl prototype_tex_2
f  40/50/6  37/69/6  38/61/6  39/30/6

o entity0_brush5
usemtl prototype_tex_2
f  41/33/1  42/32/1  43/70/1  44/71/1
usemtl prototype_tex_2
f  45/72/2  43/73/2  42/34/2  46/63/2
usemtl prototype_tex_2
f  46/74/3  42/38/3  41/41/3  47/22/3
usemtl prototype_tex_2
f  48/26/4  44/42/4  43/45/4  45/75/4
usemtl prototype_tex_2
f  47/68/5  41/49/5  44/76/5  48/77/5
usemtl prototype_tex_2
f  48/78/6  45/79/6  46/51/6  47/50/6

o entity0_brush6
usemtl prototype_tex_2
f  49/31/1  50/80/1  51/81/1  52/32/1
usemtl prototype_tex_2
f  53/34/2  51/35/2  50/36/2  54/37/2
usemtl prototype_tex_2
f  54/82/3  50/83/3  49/39/3  55/38/3
usemtl prototype_tex_2
f  56/45/4  52/44/4  51/84/4  53/85/4
usemtl prototype_tex_2
f  55/46/5  49/47/5  52/48/5  56/49/5
usemtl prototype_tex_2
f  56/51/6  53/86/6  54/87/6  55/52/6

o entity0_brush7
usemtl prototype_tex_2
f  57/80/1  58/88/1  59/89/1  60/90/1
usemtl prototype_tex_2
f  61/91/2  59/92/2  58/36/2  62/37/2
usemtl prototype_tex_2
f  62/93/3  58/94/3  57/83/3  63/82/3
usemtl prototype_tex_2
f  64/85/4  60/84/4  59/95/4  61/96/4
usemtl prototype_tex_2
f  63/46/5  57/47/5  60/97/5  64/98/5
usemtl prototype_tex_2
f  64/99/6  61/100/6  62/101/6  63/87/6

o entity0_brush8
usemtl prototype_tex_2
f  65/88/1  66/102/1  67/103/1  68/104/1
usemtl prototype_tex_2
f  69/105/2  67/106/2  66/36/2  70/37/2
usemtl prototype_tex_2
f  70/107/3  66/108/3  65/94/3  71/93/3
usemtl prototype_tex_2
f  72/96/4  68/95/4  67/109/4  69/110/4
usemtl prototype_tex_2
f  71/46/5  65/47/5  68/111/5  72/112/5
usemtl prototype_tex_2
f  72/113/6  69/114/6  70/115/6  71/101/6

o entity0_brush9
usemtl prototype_tex_2
f  73/102/1  74/53/1  75/116/1  76/117/1
usemtl prototype_tex_2
f  77/118/2  75/119/2  74/36/2  78/37/2
usemtl prototype_tex_2
f  78/65/3  74/56/3  73/108/3  79/107/3
usemtl prototype_tex_2
f  80/110/4  76/109/4  75/58/4  77/66/4
usemtl prototype_tex_2
f  79/46/5  73/47/5  76/120/5  80/121/5
usemtl prototype_tex_2
f  80/122/6  77/123/6  78/61/6  79/115/6

o entity0_brush10
usemtl prototype_tex_2
f  81/124/1  82/125/1  83/126/1  84/127/1
usemtl prototype_tex_2
f  85/128/2  83/129/2  82/35/2  86/34/2
usemtl prototype_tex_2
f  86/130/3  82/131/3  81/132/3  87/133/3
usemtl prototype_tex_2
f  88/134/4  84/135/4  83/136/4  85/137/4
usemtl prototype_tex_2
f  87/49/5  81/48/5  84/138/5  88/139/5
usemtl prototype_tex_2
f  88/140/6  85/141/6  86/142/6  87/143/6

o entity0_brush11
usemtl prototype_tex_2
f  89/125/1  90/144/1  91/145/1  92/146/1
usemtl prototype_tex_2
f  93/147/2  91/148/2  90/35/2  94/34/2
usemtl prototype_tex_2
f  94/149/3  90/150/3  89/131/3  95/130/3
usemtl prototype_tex_2
f  96/137/4  92/136/4  91/151/4  93/152/4
usemtl prototype_tex_2
f  95/49/5  89/48/5  92/153/5  96/154/5
usemtl prototype_tex_2
f  96/155/6  93/156/6  94/157/6  95/142/6

o entity0_brush12
usemtl prototype_tex_2
f  97/144/1  98/158/1  99/159/1  100/160/1
usemtl prototype_tex_2
f  101/73/2  99/161/2  98/35/2  102/34/2
usemtl prototype_tex_2
f  102/162/3  98/163/3  97/150/3  103/149/3
usemtl prototype_tex_2
f  104/152/4  100/151/4  99/164/4  101/165/4
usemtl prototype_tex_2
f  103/49/5  97/48/5  100/166/5  104/76/5
usemtl prototype_tex_2
f  104/167/6  101/168/6  102/169/6  103/157/6

o entity0_brush13
usemtl prototype_tex_2
f  105/158/1  106/32/1  107/170/1  108/171/1
usemtl prototype_tex_2
f  109/172/2  107/173/2  106/35/2  110/34/2
usemtl prototype_tex_2
f  110/38/3  106/39/3  105/163/3  111/162/3
usemtl prototype_tex_2
f  112/165/4  108/164/4  107/44/4  109/45/4
usemtl prototype_tex_2
f  111/49/5  105/48/5  108/174/5  112/175/5
usemtl prototype_tex_2
f  112/176/6  109/177/6  110/51/6  111/169/6

o entity0_brush14
usemtl prototype_tex_2
f  113/178/1  114/179/1  115/180/1  116/18/1
usemtl prototype_tex_2
f  117/181/2  115/55/2  114/129/2  118/128/2
usemtl prototype_tex_2
f  118/182/3  114/183/3  113/40/3  119/41/3
usemtl prototype_tex_2
f  120/42/4  116/43/4  115/184/4  117/185/4
usemtl prototype_tex_2
f  119/139/5  113/138/5  116/59/5  120/186/5
usemtl prototype_tex_2
f  120/29/6  117/187/6  118/188/6  119/189/6

o entity0_brush15
usemtl prototype_tex_2
f  121/179/1  122/190/1  123/191/1  124/192/1
usemtl prototype_tex_2
f  125/193/2  123/194/2  122/129/2  126/128/2
usemtl prototype_tex_2
f  126/195/3  122/196/3  121/183/3  127/182/3
usemtl prototype_tex_2
f  128/185/4  124/184/4  123/197/4  125/198/4
usemtl prototype_tex_2
f  127/139/5  121/138/5  124/199/5  128/200/5
usemtl prototype_tex_2
f  128/201/6  125/202/6  126/203/6  127/188/6

o entity0_brush16
usemtl prototype_tex_2
f  129/190/1  130/204/1  131/205/1  132/206/1
usemtl prototype_tex_2
f  133/207/2  131/208/2  130/129/2  134/128/2
usemtl prototype_tex_2
f  134/209/3  130/210/3  129/196/3  135/195/3
usemtl prototype_tex_2
f  136/198/4  132/197/4  131/211/4  133/212/4
usemtl prototype_tex_2
f  135/139/5  129/138/5  132/213/5  136/214/5
usemtl prototype_tex_2
f  136/215/6  133/216/6  134/217/6  135/203/6

o entity0_brush17
usemtl prototype_tex_2
f  137/204/1  138/127/1  139/218/1  140/219/1
usemtl prototype_tex_2
f  141/220/2  139/221/2  138/129/2  142/128/2
usemtl prototype_tex_2
f  142/133/3  138/132/3  137/210/3  143/209/3
usemtl prototype_tex_2
f  144/212/4  140/211/4  139/135/4  141/134/4
usemtl prototype_tex_2
f  143/139/5  137/138/5  140/222/5  144/223/5
usemtl prototype_tex_2
f  144/224/6  141/225/6  142/140/6  143/217/6

o entity0_brush18
usemtl prototype_tex_2
f  145/33/1  146/124/1  147/127/1  148/178/1
usemtl prototype_tex_2
f  149/128/2  147/129/2  146/35/2  150/34/2
usemtl prototype_tex_2
f  150/133/3  146/132/3  145/40/3  151/41/3
usemtl prototype_tex_2
f  152/42/4  148/43/4  147/135/4  149/134/4
usemtl prototype_tex_2
f  151/49/5  145/48/5  148/138/5  152/139/5
usemtl prototype_tex_2
f  152/189/6  149/140/6  150/143/6  151/50/6

o entity0_brush19
usemtl prototype_tex_2
f  153/52/1  154/226/1  155/227/1  156/79/1
usemtl prototype_tex_2
f  157/228/2  155/229/2  154/230/2  158/231/2
usemtl prototype_tex_2
f  158/232/3  154/233/3  153/234/3  159/235/3
usemtl prototype_tex_2
f  160/236/4  156/237/4  155/238/4  157/239/4
usemtl prototype_tex_2
f  159/240/5  153/241/5  156/242/5  160/243/5
usemtl prototype_tex_2
f  160/79/6  157/227/6  158/226/6  159/52/6

o entity0_brush20
usemtl prototype_tex_2
f  161/31/1  162/244/1  163/245/1  164/70/1
usemtl prototype_tex_2
f  165/246/2  163/72/2  162/21/2  166/247/2
usemtl prototype_tex_2
f  166/248/3  162/249/3  161/74/3  167/250/3
usemtl prototype_tex_2
f  168/251/4  164/75/4  163/252/4  165/253/4
usemtl prototype_tex_2
f  167/254/5  161/27/5  164/77/5  168/255/5
usemtl prototype_tex_2
f  168/70/6  165/245/6  166/244/6  167/31/6

o entity0_brush21
usemtl prototype_tex_2
f  169/52/1  170/226/1  171/256/1  172/51/1
usemtl prototype_tex_2
f  173/257/2  171/258/2  170/259/2  174/260/2
usemtl prototype_tex_2
f  174/261/3  170/262/3  169/263/3  175/264/3
usemtl prototype_tex_2
f  176/265/4  172/266/4  171/267/4  173/268/4
usemtl prototype_tex_2
f  175/269/5  169/270/5  172/271/5  176/272/5
usemtl prototype_tex_2
f  176/51/6  173/256/6  174/226/6  175/52/6

o entity0_brush22
usemtl prototype_tex_2
f  177/273/1  178/274/1  179/275/1  180/32/1
usemtl prototype_tex_2
f  181/258/2  179/276/2  178/277/2  182/278/2
usemtl prototype_tex_2
f  182/267/3  178/239/3  177/236/3  183/266/3
usemtl prototype_tex_2
f  184/266/4  180/236/4  179/239/4  181/267/4
usemtl prototype_tex_2
f  183/279/5  177/280/5  180/281/5  184/271/5
usemtl prototype_tex_2
f  184/51/6  181/256/6  182/282/6  183/283/6

o entity0_brush23
usemtl prototype_tex_2
f  185/284/1  186/285/1  187/286/1  188/287/1
usemtl prototype_tex_2
f  189/288/2  187/289/2  186/290/2  190/291/2
usemtl prototype_tex_2
f  190/292/3  186/293/3  185/251/3  191/237/3
usemtl prototype_tex_2
f  192/237/4  188/251/4  187/293/4  189/292/4
usemtl prototype_tex_2
f  191/294/5  185/295/5  188/296/5  192/297/5
usemtl prototype_tex_2
f  192/298/6  189/299/6  190/300/6  191/301/6

o entity0_brush24
usemtl prototype_tex_2
f  193/79/1  194/302/1  195/299/1  196/298/1
usemtl prototype_tex_2
f  197/303/2  195/288/2  194/229/2  198/228/2
usemtl prototype_tex_2
f  198/304/3  194/305/3  193/234/3  199/235/3
usemtl prototype_tex_2
f  200/236/4  196/237/4  195/292/4  197/306/4
usemtl prototype_tex_2
f  199/243/5  193/242/5  196/297/5  200/307/5
usemtl prototype_tex_2
f  200/298/6  197/299/6  198/302/6  199/79/6

o entity0_brush25
usemtl prototype_tex_2
f  201/70/1  202/308/1  203/286/1  204/287/1
usemtl prototype_tex_2
f  205/289/2  203/309/2  202/72/2  206/246/2
usemtl prototype_tex_2
f  206/310/3  202/64/3  201/74/3  207/250/3
usemtl prototype_tex_2
f  208/251/4  204/75/4  203/67/4  205/293/4
usemtl prototype_tex_2
f  207/255/5  201/77/5  204/311/5  208/296/5
usemtl prototype_tex_2
f  208/287/6  205/286/6  206/308/6  207/70/6

o entity0_brush26
usemtl prototype_tex_2
f  209/312/1  210/313/1  211/245/1  212/308/1
usemtl prototype_tex_2
f  213/229/2  211/246/2  210/314/2  214/315/2
usemtl prototype_tex_2
f  214/238/3  210/253/3  209/293/3  215/292/3
usemtl prototype_tex_2
f  216/292/4  212/293/4  211/253/4  213/238/4
usemtl prototype_tex_2
f  215/316/5  209/317/5  212/255/5  216/242/5
usemtl prototype_tex_2
f  216/302/6  213/227/6  214/318/6  215/319/6

o entity0_brush27
usemtl prototype_tex_2
f  217/308/1  218/320/1  219/321/1  220/286/1
usemtl prototype_tex_2
f  221/303/2  219/309/2  218/72/2  222/228/2
usemtl prototype_tex_2
f  222/322/3  218/323/3  217/67/3  223/306/3
usemtl prototype_tex_2
f  224/306/4  220/67/4  219/323/4  221/322/4
usemtl prototype_tex_2
f  223/243/5  217/77/5  220/311/5  224/307/5
usemtl prototype_tex_2
f  224/299/6  221/324/6  222/325/6  223/302/6

o entity0_brush28
usemtl prototype_tex_2
f  225/326/1  226/327/1  227/328/1  228/284/1
usemtl prototype_tex_2
f  229/329/2  227/330/2  226/331/2  230/332/2
usemtl prototype_tex_2
f  230/267/3  226/239/3  225/236/3  231/266/3
usemtl prototype_tex_2
f  232/266/4  228/236/4  227/239/4  229/267/4
usemtl prototype_tex_2
f  231/333/5  225/334/5  228/335/5  232/336/5
usemtl prototype_tex_2
f  232/301/6  229/337/6  230/338/6  231/339/6

o entity0_brush29
usemtl prototype_tex_2
f  233/51/1  234/256/1  235/337/1  236/301/1
usemtl prototype_tex_2
f  237/340/2  235/329/2  234/258/2  238/257/2
usemtl prototype_tex_2
f  238/261/3  234/262/3  233/263/3  239/264/3
usemtl prototype_tex_2
f  240/265/4  236/266/4  235/267/4  237/268/4
usemtl prototype_tex_2
f  239/272/5  233/271/5  236/336/5  240/341/5
usemtl prototype_tex_2
f  240/301/6  237/337/6  238/256/6  239/51/6

o entity0_brush30
usemtl prototype_tex_2
f  241/325/1  242/227/1  243/337/1  244/342/1
usemtl prototype_tex_2
f  245/330/2  243/291/2  242/229/2  246/228/2
usemtl prototype_tex_2
f  246/232/3  242/233/3  241/343/3  247/344/3
usemtl prototype_tex_2
f  248/322/4  244/345/4  243/238/4  245/239/4
usemtl prototype_tex_2
f  247/243/5  241/242/5  244/294/5  248/335/5
usemtl prototype_tex_2
f  248/342/6  245/337/6  246/227/6  247/325/6

